<svg xmlns="http://www.w3.org/2000/svg" width="64" height="64" viewBox="0 0 64 64">
  <defs>
    <linearGradient id="gradient" x1="0%" y1="0%" x2="100%" y2="100%">
      <stop offset="0%" stop-color="#3b82f6" /> <!-- from-blue-500 -->
      <stop offset="100%" stop-color="#9333ea" /> <!-- to-purple-600 -->
    </linearGradient>
  </defs>

  <!-- Gradient background rectangle -->
  <rect x="0" y="0" width="64" height="64" rx="12" ry="12" fill="url(#gradient)" />

  <!-- Larger Lucide Package icon -->
  <g transform="translate(10, 10) scale(1.6)">
    <path d="M11 21.73a2 2 0 0 0 2 0l7-4A2 2 0 0 0 21 16V8a2 2 0 0 0-1-1.73l-7-4a2 2 0 0 0-2 0l-7 4A2 2 0 0 0 3 8v8a2 2 0 0 0 1 1.73z" 
      fill="none" stroke="white" stroke-width="2.5" stroke-linecap="round" stroke-linejoin="round"/>
    <path d="M12 22V12" fill="none" stroke="white" stroke-width="2.5" stroke-linecap="round" stroke-linejoin="round"/>
    <polyline points="3.29 7 12 12 20.71 7" fill="none" stroke="white" stroke-width="2.5" stroke-linecap="round" stroke-linejoin="round"/>
    <path d="m7.5 4.27 9 5.15" fill="none" stroke="white" stroke-width="2.5" stroke-linecap="round" stroke-linejoin="round"/>
  </g>
</svg>
